<svg xmlns="http://www.w3.org/2000/svg" viewBox="0 0 746 150" role="img">
<rect x="134" y="26" width="44" height="24" rx="9" fill="none" stroke="#888888" stroke-width="1"/>
<text x="156.0" y="42.0" text-anchor="middle" font-family="sans-serif" font-size="11" fill="#888888">A</text>
<line x1="156.0" y1="50" x2="156.0" y2="96" stroke="#888888" stroke-width="1"/>
<rect x="130" y="96" width="52" height="24" fill="none" stroke="#888888" stroke-width="1"/>
<text x="156.0" y="112.0" text-anchor="middle" font-family="monospace" font-size="12" fill="#888888">0</text>
<rect x="186" y="26" width="44" height="24" rx="9" fill="none" stroke="#888888" stroke-width="1"/>
<text x="208.0" y="42.0" text-anchor="middle" font-family="sans-serif" font-size="11" fill="#888888">B</text>
<line x1="208.0" y1="50" x2="208.0" y2="96" stroke="#888888" stroke-width="1"/>
<rect x="182" y="96" width="52" height="24" fill="none" stroke="#888888" stroke-width="1"/>
<text x="208.0" y="112.0" text-anchor="middle" font-family="monospace" font-size="12" fill="#888888">0</text>
<rect x="238" y="26" width="44" height="24" rx="9" fill="none" stroke="#888888" stroke-width="1"/>
<text x="260.0" y="42.0" text-anchor="middle" font-family="sans-serif" font-size="11" fill="#888888">Select</text>
<line x1="260.0" y1="50" x2="260.0" y2="96" stroke="#888888" stroke-width="1"/>
<rect x="234" y="96" width="52" height="24" fill="none" stroke="#888888" stroke-width="1"/>
<text x="260.0" y="112.0" text-anchor="middle" font-family="monospace" font-size="12" fill="#888888">0</text>
<rect x="290" y="26" width="44" height="24" rx="9" fill="#c95f5f33" stroke="#c95f5f" stroke-width="1"/>
<text x="312.0" y="42.0" text-anchor="middle" font-family="sans-serif" font-size="11" fill="#c95f5f">Start</text>
<line x1="312.0" y1="50" x2="312.0" y2="96" stroke="#c95f5f" stroke-width="1"/>
<rect x="286" y="96" width="52" height="24" fill="none" stroke="#888888" stroke-width="1"/>
<text x="312.0" y="112.0" text-anchor="middle" font-family="monospace" font-size="12" fill="#c95f5f">1</text>
<rect x="342" y="26" width="44" height="24" rx="9" fill="none" stroke="#888888" stroke-width="1"/>
<text x="364.0" y="42.0" text-anchor="middle" font-family="sans-serif" font-size="11" fill="#888888">↑</text>
<line x1="364.0" y1="50" x2="364.0" y2="96" stroke="#888888" stroke-width="1"/>
<rect x="338" y="96" width="52" height="24" fill="none" stroke="#888888" stroke-width="1"/>
<text x="364.0" y="112.0" text-anchor="middle" font-family="monospace" font-size="12" fill="#888888">0</text>
<rect x="394" y="26" width="44" height="24" rx="9" fill="none" stroke="#888888" stroke-width="1"/>
<text x="416.0" y="42.0" text-anchor="middle" font-family="sans-serif" font-size="11" fill="#888888">↓</text>
<line x1="416.0" y1="50" x2="416.0" y2="96" stroke="#888888" stroke-width="1"/>
<rect x="390" y="96" width="52" height="24" fill="none" stroke="#888888" stroke-width="1"/>
<text x="416.0" y="112.0" text-anchor="middle" font-family="monospace" font-size="12" fill="#888888">0</text>
<rect x="446" y="26" width="44" height="24" rx="9" fill="none" stroke="#888888" stroke-width="1"/>
<text x="468.0" y="42.0" text-anchor="middle" font-family="sans-serif" font-size="11" fill="#888888">←</text>
<line x1="468.0" y1="50" x2="468.0" y2="96" stroke="#888888" stroke-width="1"/>
<rect x="442" y="96" width="52" height="24" fill="none" stroke="#888888" stroke-width="1"/>
<text x="468.0" y="112.0" text-anchor="middle" font-family="monospace" font-size="12" fill="#888888">0</text>
<rect x="498" y="26" width="44" height="24" rx="9" fill="#c95f5f33" stroke="#c95f5f" stroke-width="1"/>
<text x="520.0" y="42.0" text-anchor="middle" font-family="sans-serif" font-size="11" fill="#c95f5f">→</text>
<line x1="520.0" y1="50" x2="520.0" y2="96" stroke="#c95f5f" stroke-width="1"/>
<rect x="494" y="96" width="52" height="24" fill="none" stroke="#888888" stroke-width="1"/>
<text x="520.0" y="112.0" text-anchor="middle" font-family="monospace" font-size="12" fill="#c95f5f">1</text>
<text x="312.0" y="18" text-anchor="middle" font-family="sans-serif" font-size="9" fill="#c95f5f">held</text>
<text x="520.0" y="18" text-anchor="middle" font-family="sans-serif" font-size="9" fill="#c95f5f">held</text>
<line x1="18" y1="108.0" x2="122" y2="108.0" stroke="#888888" stroke-width="1" stroke-dasharray="4 3"/>
<polygon points="122,104.0 130,108.0 122,112.0" fill="#888888"/>
<text x="18" y="138.0" text-anchor="start" font-family="sans-serif" font-size="10" fill="#888888">strobe: high = stare, drop = freeze</text>
<text x="338.0" y="136" text-anchor="middle" font-family="sans-serif" font-size="10" fill="#888888">the snapshot</text>
<line x1="546" y1="108.0" x2="598" y2="108.0" stroke="#888888" stroke-width="1"/>
<polygon points="598,104.0 606,108.0 598,112.0" fill="#888888"/>
<text x="576" y="100.0" text-anchor="middle" font-family="monospace" font-size="11" fill="#c95f5f">0</text>
<text x="612" y="112.0" text-anchor="start" font-family="sans-serif" font-size="10" fill="#888888">$4016, one bit per read</text>
</svg>
